HIERARCHY
ROOT mixamorig:Hips
{
  OFFSET 0.000000 0.000000 0.000000
  CHANNELS 6 Xposition Yposition Zposition Xrotation Yrotation Zrotation
  JOINT mixamorig:Spine
  {
    OFFSET 0.888281 24.507439 -2.720481
    CHANNELS 3 Xrotation Yrotation Zrotation
    JOINT mixamorig:Spine2
    {
      OFFSET 0.888281 24.507439 -2.720481
      CHANNELS 3 Xrotation Yrotation Zrotation
      JOINT mixamorig:Neck
      {
        OFFSET 0.000000 6.350396 0.000000
        CHANNELS 3 Xrotation Yrotation Zrotation
        JOINT mixamorig:Head
        {
          OFFSET 0.000000 6.819653 0.000000
          CHANNELS 3 Xrotation Yrotation Zrotation
          End Site
          {
            OFFSET 0.000000 2.045896 0.000000
          }
        }
      }
      JOINT mixamorig:LeftShoulder
      {
        OFFSET 16.020412 2.520092 -5.380821
        CHANNELS 3 Xrotation Yrotation Zrotation
        JOINT mixamorig:LeftArm
        {
          OFFSET 10.000000 -2.000000 0.000000
          CHANNELS 3 Xrotation Yrotation Zrotation
          JOINT mixamorig:LeftForeArm
          {
            OFFSET 22.301187 0.000000 0.000000
            CHANNELS 3 Xrotation Yrotation Zrotation
            JOINT mixamorig:LeftHand
            {
              OFFSET 27.622476 0.000000 0.000000
              CHANNELS 3 Xrotation Yrotation Zrotation
              End Site
              {
                OFFSET 8.286743 0.000000 0.000000
              }
            }
          }
        }
      }
      JOINT mixamorig:RightShoulder
      {
        OFFSET -16.020412 2.520092 5.380821
        CHANNELS 3 Xrotation Yrotation Zrotation
        JOINT mixamorig:RightArm
        {
          OFFSET -10.000000 -2.000000 0.000000
          CHANNELS 3 Xrotation Yrotation Zrotation
          JOINT mixamorig:RightForeArm
          {
            OFFSET -31.190187 0.000000 0.000000
            CHANNELS 3 Xrotation Yrotation Zrotation
            JOINT mixamorig:RightHand
            {
              OFFSET -26.099761 0.000000 0.000000
              CHANNELS 3 Xrotation Yrotation Zrotation
              End Site
              {
                OFFSET -7.829928 0.000000 0.000000
              }
            }
          }
        }
      }
    }
  }
  JOINT mixamorig:LeftUpLeg
  {
    OFFSET 9.330592 -0.608966 -0.480705
    CHANNELS 3 Xrotation Yrotation Zrotation
    JOINT mixamorig:LeftLeg
    {
      OFFSET 1.429883 -38.712545 -8.162867
      CHANNELS 3 Xrotation Yrotation Zrotation
      JOINT mixamorig:LeftFoot
      {
        OFFSET 2.312643 -36.159945 16.923572
        CHANNELS 3 Xrotation Yrotation Zrotation
        JOINT mixamorig:LeftToeBase
        {
          OFFSET -4.896681 -6.214452 -6.817048
          CHANNELS 3 Xrotation Yrotation Zrotation
          End Site
          {
            OFFSET -1.469004 -1.864336 -2.045114
          }
        }
      }
    }
  }
  JOINT mixamorig:RightUpLeg
  {
    OFFSET -9.330592 0.608966 0.480705
    CHANNELS 3 Xrotation Yrotation Zrotation
    JOINT mixamorig:RightLeg
    {
      OFFSET 5.197952 -35.546916 1.847739
      CHANNELS 3 Xrotation Yrotation Zrotation
      JOINT mixamorig:RightFoot
      {
        OFFSET -1.175352 -43.737760 11.185155
        CHANNELS 3 Xrotation Yrotation Zrotation
        JOINT mixamorig:RightToeBase
        {
          OFFSET -5.934362 -2.936864 -9.381618
          CHANNELS 3 Xrotation Yrotation Zrotation
          End Site
          {
            OFFSET -1.780308 -0.881059 -2.814485
          }
        }
      }
    }
  }
}
MOTION
Frames: 8
Frame Time: 0.083333
0.125117 0.139777 0.107910 5.776915 -0.207246 0.013253 0.000068 0.002312 0.020848 -4.510477 41.458002 -0.850086 2.220199 -9.782101 8.761075 0.582441 -9.998050 8.242665 0.000000 0.000000 0.000000 5.836698 -6.937211 -79.985710 -2.386814 7.169100 -36.642821 0.000000 0.000000 0.000000 0.000000 0.000000 0.000000 0.000000 0.000000 0.000000 0.000000 0.000000 0.000000 0.000000 0.000000 0.000000 -14.917450 -0.540735 0.394670 9.609515 2.408583 4.947002 14.704511 13.129491 -19.903557 0.000000 0.000000 0.000000 -4.302975 -2.308908 -18.057876 4.371426 -0.224654 -0.495302 2.711017 14.372148 -6.364383 0.000000 0.000000 0.000000
0.124108 0.139486 0.111131 5.761289 -0.204553 0.048214 0.000066 0.002299 0.020736 -4.522055 41.274869 -0.854426 2.278403 -9.857272 8.787289 0.618155 -10.080854 8.253280 0.000000 0.000000 0.000000 5.708017 -6.808124 -79.803791 -2.529480 7.586671 -36.710648 0.000000 0.000000 0.000000 0.000000 0.000000 0.000000 0.000000 0.000000 0.000000 0.000000 0.000000 0.000000 0.000000 0.000000 0.000000 -14.926299 -0.521969 0.344208 9.609622 2.319623 4.707090 14.318413 12.793352 -19.443450 0.000000 0.000000 0.000000 -4.157942 -2.256365 -18.011684 4.260382 -0.223460 -0.499360 2.763476 14.020852 -6.266869 0.000000 0.000000 0.000000
0.122176 0.137859 0.118115 5.930415 -0.233448 -0.332472 0.000076 0.002435 0.021958 -4.543979 40.919297 -0.656726 2.042643 -8.910399 7.901051 0.713247 -9.099978 7.484878 0.000000 0.000000 0.000000 7.283301 -8.624488 -80.351937 -1.182220 3.594429 -36.362736 0.000000 0.000000 0.000000 0.000000 0.000000 0.000000 0.000000 0.000000 0.000000 0.000000 0.000000 0.000000 0.000000 0.000000 0.000000 -17.945692 -0.823769 4.003056 9.898197 2.911538 6.315194 18.784879 15.032064 -23.245014 0.000000 0.000000 0.000000 -5.565340 -2.507572 -16.160248 5.612998 -0.143421 0.032745 2.279266 15.884258 -6.666911 0.000000 0.000000 0.000000
0.122913 0.135284 0.124318 5.964500 -0.236906 -0.372345 0.000075 0.002463 0.022211 -4.621343 39.683708 -0.571169 2.385605 -8.472735 7.534704 1.168745 -8.709289 7.099546 0.000000 0.000000 0.000000 7.748150 -9.263344 -79.783552 -0.905301 2.797853 -35.560734 0.000000 0.000000 0.000000 0.000000 0.000000 0.000000 0.000000 0.000000 0.000000 0.000000 0.000000 0.000000 0.000000 0.000000 0.000000 -20.079991 -0.931137 6.570371 8.162145 2.753663 5.898270 17.817468 14.250326 -22.168620 0.000000 0.000000 0.000000 -5.734361 -2.393049 -14.645260 5.909399 0.145615 1.498160 1.463350 14.241783 -5.631558 0.000000 0.000000 0.000000
0.128738 0.131603 0.129451 6.001518 -0.239755 -0.401971 0.000075 0.002494 0.022490 -4.652990 39.156596 -0.538501 2.869934 -7.732669 7.717986 1.723172 -8.047322 7.262685 0.000000 0.000000 0.000000 7.869933 -9.461741 -79.453415 -0.626521 2.129304 -32.718954 0.000000 0.000000 0.000000 0.000000 0.000000 0.000000 0.000000 0.000000 0.000000 0.000000 0.000000 0.000000 0.000000 0.000000 0.000000 -20.389662 -0.965611 7.804342 3.278299 2.877530 6.069947 12.459558 12.333109 -18.195306 0.000000 0.000000 0.000000 -5.758844 -2.321616 -13.932165 5.688901 0.772756 4.495634 -0.707658 12.004913 -3.645386 0.000000 0.000000 0.000000
0.136659 0.127911 0.134233 6.086843 -0.261408 -0.730487 0.000052 0.002566 0.023130 -4.707823 38.220309 -0.276387 3.147889 -6.585025 8.049850 2.130297 -6.962306 7.640333 0.000000 0.000000 0.000000 7.384602 -9.006768 -78.622621 -0.629621 2.721525 -28.381733 0.000000 0.000000 0.000000 0.000000 0.000000 0.000000 0.000000 0.000000 0.000000 0.000000 0.000000 0.000000 0.000000 0.000000 0.000000 -19.586433 -1.001897 8.103737 -1.330919 4.004373 8.408368 5.685697 9.456225 -12.149592 0.000000 0.000000 0.000000 -5.940684 -2.178890 -12.219250 4.763546 1.299058 6.683336 -3.330827 11.925909 -2.166905 0.000000 0.000000 0.000000
0.142878 0.124548 0.139780 6.117414 -0.287263 -1.166237 0.000008 0.002593 0.023361 -4.796731 36.669359 0.147582 3.391994 -5.588396 8.332501 2.495873 -6.023415 7.968916 0.000000 0.000000 0.000000 6.453057 -7.966373 -77.942894 -0.982576 5.500997 -22.943365 0.000000 0.000000 0.000000 0.000000 0.000000 0.000000 0.000000 0.000000 0.000000 0.000000 0.000000 0.000000 0.000000 0.000000 0.000000 -18.443911 -1.036321 8.033837 -6.363885 5.009606 10.115713 -1.651668 7.626757 -6.231392 0.000000 0.000000 0.000000 -6.359049 -1.941608 -9.179348 3.379276 1.387494 6.571217 -5.939067 12.774576 -1.008008 0.000000 0.000000 0.000000
0.146821 0.122657 0.144419 6.106799 -0.297416 -1.348888 -0.000022 0.002585 0.023281 -4.890503 34.931615 0.403475 3.523973 -5.149151 8.558905 2.673901 -5.619538 8.216293 0.000000 0.000000 0.000000 5.579564 -6.972843 -77.293141 -1.424005 9.197655 -17.401273 0.000000 0.000000 0.000000 0.000000 0.000000 0.000000 0.000000 0.000000 0.000000 0.000000 0.000000 0.000000 0.000000 0.000000 0.000000 -16.581452 -1.066423 7.516069 -10.835918 5.191535 10.101629 -4.720273 8.184137 -4.873904 0.000000 0.000000 0.000000 -6.641422 -1.663879 -6.098708 3.067136 1.017199 4.821708 -6.274487 10.695033 0.027622 0.000000 0.000000 0.000000
